<?xml version="1.0" standalone="no"?><!DOCTYPE svg PUBLIC "-//W3C//DTD SVG 1.1//EN" "http://www.w3.org/Graphics/SVG/1.1/DTD/svg11.dtd"><svg t="1628326532815" class="icon" viewBox="0 0 1024 1024" version="1.1" xmlns="http://www.w3.org/2000/svg" p-id="7415" xmlns:xlink="http://www.w3.org/1999/xlink" width="200" height="200"><defs><style type="text/css"></style></defs><path d="M773.7344 945.152H235.1104c-89.9072 0-162.7648-72.8576-162.7648-162.7648v-418.304c0-89.9072 72.8576-162.7648 162.7648-162.7648h538.5728c89.9072 0 162.7648 72.8576 162.7648 162.7648v418.304c0 89.856-72.8576 162.7648-162.7136 162.7648z" fill="#F85F69" p-id="7416"></path><path d="M773.7344 201.3184h-56.32v-0.6656c0-71.3216-58.0096-129.28-129.28-129.28H416.8192c-71.3216 0-129.28 58.0096-129.28 129.28v0.6656H235.1104c-89.9072 0-162.7648 72.8576-162.7648 162.7648v183.6544H936.448V364.0832c0-89.9072-72.8576-162.7648-162.7136-162.7648z m-414.5152-0.6656c0-31.7952 25.856-57.6 57.6-57.6h171.264c31.7952 0 57.6 25.856 57.6 57.6v0.6656H359.2192v-0.6656z" fill="#F33B3D" p-id="7417"></path><path d="M502.4768 702.7712c-74.6496 0-135.424-60.7232-135.424-135.424s60.7232-135.424 135.424-135.424 135.424 60.7232 135.424 135.424-60.7744 135.424-135.424 135.424z m0-188.928c-29.4912 0-53.504 24.0128-53.504 53.504 0 29.4912 24.0128 53.504 53.504 53.504 29.4912 0 53.504-24.0128 53.504-53.504-0.0512-29.4912-24.0128-53.504-53.504-53.504z" fill="#FFFFFF" p-id="7418"></path></svg>